<?xml version="1.0" encoding="utf-8"?>
<!-- Generator: Adobe Illustrator 26.2.1, SVG Export Plug-In . SVG Version: 6.00 Build 0)  -->
<svg version="1.1" id="Layer_1" xmlns="http://www.w3.org/2000/svg" xmlns:xlink="http://www.w3.org/1999/xlink" x="0px" y="0px"
	 viewBox="0 0 777 777" style="enable-background:new 0 0 777 777;" xml:space="preserve">
<style type="text/css">
	.st0{fill:#FFFFFF;}
</style>
<rect width="777" height="777"/>
<g>
	<ellipse transform="matrix(0.7071 -0.7071 0.7071 0.7071 -160.9219 388.5001)" cx="388.5" cy="388.5" rx="257.4" ry="257.4"/>
	<path class="st0" d="M388.5,131.1c-142.2,0-257.4,115.2-257.4,257.4c0,142.2,115.2,257.4,257.4,257.4
		c142.2,0,257.4-115.2,257.4-257.4C645.9,246.3,530.7,131.1,388.5,131.1z M388.5,142.8c135.5,0,245.7,110.2,245.7,245.7
		c0,9.3-0.6,18.5-1.6,27.6c-13.6-70.9-81.2-144.5-178.8-185c-46.3-19.2-93.1-28.3-135.9-28.3c-47.2,0-89.6,11.2-120.9,32.3
		C241.9,178.9,311.1,142.8,388.5,142.8z M273.7,219.5c-3.9,0-7.6,0.3-11.2,0.8c17-3.8,35.5-5.7,55.3-5.7h0
		c42.7,0,88.1,9.5,131.4,27.5c61.4,25.5,112.5,65.1,143.8,111.5c29.9,44.4,38,89.7,22.9,127.7c-0.3,0.7-0.6,1.4-0.8,2.2
		c-13.9,32.8-44.1,56.9-85.1,69.4c6.1-2.5,11.5-6,15.9-10.5c37.9-38.8-1.9-139.1-88.8-224C393.5,256.1,322.2,219.5,273.7,219.5
		L273.7,219.5z M273.7,231.2L273.7,231.2c17.6,0,38.7,5.4,61.9,15.6c0,0,0,0-0.1,0c-1.9,0-3.7,0.3-5.5,1
		c-23.5,9.2-18.3,79,11.7,156.1c18,46.2,40.8,84.5,61.3,105.8c-25.5-15.9-51.1-36.1-74.9-59.3c-40.9-39.9-72.3-84.4-88.5-125.2
		c-14.8-37.2-14.8-67.1-0.1-82.2C247.1,235.2,258.6,231.2,273.7,231.2L273.7,231.2z M161,295.9c0.3-0.7,0.6-1.4,0.8-2.2
		c13.9-32.8,44-56.8,85-69.4c-6,2.5-11.3,5.9-15.8,10.4c-37.9,38.8,1.9,139.1,88.8,224c63.6,62.1,134.9,98.8,183.4,98.8
		c3.9,0,7.7-0.3,11.4-0.8c-17,3.8-35.6,5.8-55.4,5.8c-42.7,0-88.1-9.5-131.4-27.5c-61.4-25.5-112.5-65.1-143.8-111.5
		C154,379.1,145.9,333.9,161,295.9z M427,370.7c-20-51.3-45.9-92.9-68-112.2c30.4,16.9,61.4,40.3,89.9,68.1
		c40.9,39.9,72.3,84.4,88.5,125.2c14.8,37.2,14.8,67.1,0.1,82.2c-7.6,7.8-19.2,11.8-34.3,11.8c-19,0-42.1-6.3-67.4-18.2
		c1-0.2,1.9-0.4,2.9-0.8C462.2,517.7,457,447.8,427,370.7z M390.2,319.8c-1.9-1.2-3.8-1.9-5.8-1.9c-14.1,0-25.5,31.6-25.5,70.6
		c0,12,1.1,23.2,3,33.1c-3.1-7-6.2-14.3-9.2-21.9c-14.1-36.2-23-71.8-25.2-100.1c-2-27,3.1-39.3,6.8-40.8c0.3-0.1,0.7-0.2,1.2-0.2
		C345.9,258.6,367.9,280,390.2,319.8z M398.1,388.5c0,34.8-9.3,54.9-13.7,58.5c-4.5-3.6-13.7-23.7-13.7-58.5s9.3-54.9,13.7-58.5
		C388.9,333.6,398.1,353.7,398.1,388.5z M384.4,459.1c14.1,0,25.5-31.6,25.5-70.6c0-13.8-1.4-26.6-3.9-37.5
		c3.4,7.6,6.8,15.5,10.1,24c14.1,36.2,23,71.8,25.2,100.1c2,27-3.1,39.3-6.8,40.8c-0.3,0.1-0.7,0.2-1.2,0.2c-10,0-31-20.2-52.7-57.8
		C381.8,458.8,383.1,459.1,384.4,459.1z M388.5,634.2C253,634.2,142.8,524,142.8,388.5c0-9.3,0.6-18.5,1.6-27.6
		c13.6,70.9,81.2,144.5,178.8,185c46.3,19.2,93.1,28.3,135.9,28.3c47.2,0,89.6-11.2,120.9-32.3C535.1,598.1,465.9,634.2,388.5,634.2
		z"/>
</g>
</svg>
